# xmcd
#
# Track frame offsets: 
#        150
#        19075
#        37995
#        56902
#
# Disc length: 1010 seconds
#
# Revision: 2
# Processed by: cddbd v1.5.2PL0 Copyright (c) Steve Scherf et al.
# Submitted via: ExactAudioCopy v1.0b3
#
DISCID=2c03f004
DTITLE=サイキックラバー - Precious Time, Glory Days
DYEAR=2011
DGENRE=Metal
TTITLE0=Precious Time, Glory Days
TTITLE1=SUBLIMINAL I LOVE YOU
TTITLE2=Precious Time, Glory Days (Instrumental)
TTITLE3=SUBLIMINAL I LOVE YOU (Instrumental)
EXTD=YEAR: 2011
EXTT0=
EXTT1=
EXTT2=
EXTT3=
PLAYORDER=
